<svg width="726" height="20" viewBox="0 0 726 20" fill="none" xmlns="http://www.w3.org/2000/svg">
<path d="M1.21951 7.85401L5.42688 0.140503L4.02442 5.75033H6.82933L0.51828 19.0737L4.02442 7.85401H1.21951Z" fill="#95C24D"/>
<path d="M76.952 7.85401L81.1593 0.140503L79.7569 5.75033H82.5618L76.2507 19.0737L79.7569 7.85401H76.952Z" fill="#95C24D"/>
<path d="M39.0857 7.85401L43.2931 0.140503L41.8906 5.75033H44.6955L38.3845 19.0737L41.8906 7.85401H39.0857Z" fill="#95C24D"/>
<path d="M114.818 7.85401L119.026 0.140503L117.623 5.75033H120.428L114.117 19.0737L117.623 7.85401H114.818Z" fill="#95C24D"/>
<path d="M20.1525 7.85401L24.3599 0.140503L22.9574 5.75033H25.7623L19.4513 19.0737L22.9574 7.85401H20.1525Z" fill="#95C24D"/>
<path d="M95.8851 7.85401L100.092 0.140503L98.69 5.75033H101.495L95.1839 19.0737L98.69 7.85401H95.8851Z" fill="#95C24D"/>
<path d="M58.0188 7.85401L62.2262 0.140503L60.8237 5.75033H63.6286L57.3176 19.0737L60.8237 7.85401H58.0188Z" fill="#95C24D"/>
<path d="M133.751 7.85401L137.959 0.140503L136.556 5.75033H139.361L133.05 19.0737L136.556 7.85401H133.751Z" fill="#95C24D"/>
<path d="M152.685 7.85401L156.892 0.140503L155.489 5.75033H158.294L151.983 19.0737L155.489 7.85401H152.685Z" fill="#95C24D"/>
<path d="M228.417 7.85401L232.625 0.140503L231.222 5.75033H234.027L227.716 19.0737L231.222 7.85401H228.417Z" fill="#95C24D"/>
<path d="M190.551 7.85401L194.758 0.140503L193.356 5.75033H196.161L189.85 19.0737L193.356 7.85401H190.551Z" fill="#95C24D"/>
<path d="M266.284 7.85401L270.491 0.140503L269.089 5.75033H271.894L265.582 19.0737L269.089 7.85401H266.284Z" fill="#95C24D"/>
<path d="M171.618 7.85401L175.825 0.140503L174.423 5.75033H177.228L170.917 19.0737L174.423 7.85401H171.618Z" fill="#95C24D"/>
<path d="M247.351 7.85401L251.558 0.140503L250.155 5.75033H252.96L246.649 19.0737L250.155 7.85401H247.351Z" fill="#95C24D"/>
<path d="M209.484 7.85401L213.692 0.140503L212.289 5.75033H215.094L208.783 19.0737L212.289 7.85401H209.484Z" fill="#95C24D"/>
<path d="M285.217 7.85401L289.424 0.140503L288.022 5.75033H290.827L284.516 19.0737L288.022 7.85401H285.217Z" fill="#95C24D"/>
<path d="M304.15 7.85401L308.357 0.140503L306.955 5.75033H309.76L303.449 19.0737L306.955 7.85401H304.15Z" fill="#95C24D"/>
<path d="M379.883 7.85401L384.09 0.140503L382.687 5.75033H385.492L379.181 19.0737L382.687 7.85401H379.883Z" fill="#95C24D"/>
<path d="M342.016 7.85401L346.224 0.140503L344.821 5.75033H347.626L341.315 19.0737L344.821 7.85401H342.016Z" fill="#95C24D"/>
<path d="M417.749 7.85401L421.956 0.140503L420.554 5.75033H423.359L417.048 19.0737L420.554 7.85401H417.749Z" fill="#95C24D"/>
<path d="M323.083 7.85401L327.29 0.140503L325.888 5.75033H328.693L322.382 19.0737L325.888 7.85401H323.083Z" fill="#95C24D"/>
<path d="M398.816 7.85401L403.023 0.140503L401.621 5.75033H404.426L398.115 19.0737L401.621 7.85401H398.816Z" fill="#95C24D"/>
<path d="M360.949 7.85401L365.157 0.140503L363.754 5.75033H366.559L360.248 19.0737L363.754 7.85401H360.949Z" fill="#95C24D"/>
<path d="M436.682 7.85401L440.889 0.140503L439.487 5.75033H442.292L435.981 19.0737L439.487 7.85401H436.682Z" fill="#95C24D"/>
<path d="M455.615 7.85401L459.823 0.140503L458.42 5.75033H461.225L454.914 19.0737L458.42 7.85401H455.615Z" fill="#95C24D"/>
<path d="M531.348 7.85401L535.555 0.140503L534.153 5.75033H536.958L530.647 19.0737L534.153 7.85401H531.348Z" fill="#95C24D"/>
<path d="M493.481 7.85401L497.689 0.140503L496.286 5.75033H499.091L492.78 19.0737L496.286 7.85401H493.481Z" fill="#95C24D"/>
<path d="M569.214 7.85401L573.421 0.140503L572.019 5.75033H574.824L568.513 19.0737L572.019 7.85401H569.214Z" fill="#95C24D"/>
<path d="M474.548 7.85401L478.756 0.140503L477.353 5.75033H480.158L473.847 19.0737L477.353 7.85401H474.548Z" fill="#95C24D"/>
<path d="M550.281 7.85401L554.488 0.140503L553.086 5.75033H555.891L549.58 19.0737L553.086 7.85401H550.281Z" fill="#95C24D"/>
<path d="M512.415 7.85401L516.622 0.140503L515.22 5.75033H518.024L511.713 19.0737L515.22 7.85401H512.415Z" fill="#95C24D"/>
<path d="M588.147 7.85401L592.355 0.140503L590.952 5.75033H593.757L587.446 19.0737L590.952 7.85401H588.147Z" fill="#95C24D"/>
<path d="M607.08 7.85401L611.288 0.140503L609.885 5.75033H612.69L606.379 19.0737L609.885 7.85401H607.08Z" fill="#95C24D"/>
<path d="M682.813 7.85401L687.02 0.140503L685.618 5.75033H688.423L682.112 19.0737L685.618 7.85401H682.813Z" fill="#95C24D"/>
<path d="M644.947 7.85401L649.154 0.140503L647.751 5.75033H650.556L644.245 19.0737L647.751 7.85401H644.947Z" fill="#95C24D"/>
<path d="M720.679 7.85401L724.887 0.140503L723.484 5.75033H726.289L719.978 19.0737L723.484 7.85401H720.679Z" fill="#95C24D"/>
<path d="M626.013 7.85401L630.221 0.140503L628.818 5.75033H631.623L625.312 19.0737L628.818 7.85401H626.013Z" fill="#95C24D"/>
<path d="M701.746 7.85401L705.953 0.140503L704.551 5.75033H707.356L701.045 19.0737L704.551 7.85401H701.746Z" fill="#95C24D"/>
<path d="M663.88 7.85401L668.087 0.140503L666.685 5.75033H669.49L663.178 19.0737L666.685 7.85401H663.88Z" fill="#95C24D"/>
</svg>
